<svg width="23" height="19" viewBox="0 0 23 19" fill="none" xmlns="http://www.w3.org/2000/svg">
<mask id="mask0" mask-type="alpha" maskUnits="userSpaceOnUse" x="0" y="0" width="23" height="19">
<path fill-rule="evenodd" clip-rule="evenodd" d="M0.529663 0.87323H22.1476V18.4313H0.529663V0.87323Z" fill="white"/>
</mask>
<g mask="url(#mask0)">
<path fill-rule="evenodd" clip-rule="evenodd" d="M7.32831 18.4313C15.4864 18.4313 19.9476 11.6769 19.9476 5.82C19.9476 5.62793 19.9437 5.43689 19.9349 5.24697C20.8008 4.62131 21.5537 3.84056 22.1476 2.9519C21.3528 3.30472 20.4977 3.54242 19.6005 3.64968C20.5161 3.10097 21.2192 2.23282 21.5507 1.19774C20.6936 1.70543 19.7447 2.07477 18.7345 2.27362C17.9253 1.41214 16.7725 0.87323 15.4971 0.87323C13.0476 0.87323 11.0611 2.85832 11.0611 5.30542C11.0611 5.65322 11.1001 5.99156 11.1763 6.31607C7.49013 6.13084 4.22142 4.36698 2.03427 1.68493C1.65291 2.33992 1.43353 3.10097 1.43353 3.91289C1.43353 5.45066 2.2166 6.8081 3.40721 7.60231C2.67982 7.57998 1.99625 7.38011 1.39852 7.0478C1.39755 7.06626 1.39755 7.08493 1.39755 7.10441C1.39755 9.25127 2.9265 11.0434 4.95581 11.4498C4.58328 11.5511 4.19126 11.6057 3.78658 11.6057C3.50086 11.6057 3.22305 11.5774 2.95283 11.5258C3.51734 13.2868 5.15468 14.5683 7.09627 14.6045C5.57788 15.7932 3.66569 16.5017 1.58775 16.5017C1.22971 16.5017 0.87683 16.4812 0.529663 16.4404C2.49264 17.6975 4.82313 18.4313 7.32831 18.4313Z" fill="black"/>
</g>
</svg>
