<svg width="23" height="23" viewBox="0 0 23 23" fill="none" xmlns="http://www.w3.org/2000/svg">
<path fill-rule="evenodd" clip-rule="evenodd" d="M6.89094 0.586362C5.73877 0.638581 4.95212 0.821527 4.26358 1.08902C3.55172 1.36529 2.94831 1.73524 2.34664 2.33654C1.74461 2.93807 1.37454 3.5411 1.09828 4.25245C0.83044 4.94056 0.647379 5.72689 0.595127 6.87822C0.542278 8.03188 0.529663 8.40016 0.529663 11.338C0.529663 14.2758 0.542278 14.6439 0.595127 15.7978C0.647379 16.9493 0.83044 17.7354 1.09828 18.4232C1.37454 19.1347 1.74461 19.738 2.34664 20.3392C2.94831 20.9407 3.55172 21.3103 4.26358 21.587C4.95212 21.8545 5.73877 22.0372 6.89094 22.0896C8.0455 22.1423 8.41384 22.1549 11.3534 22.1549C14.2932 22.1549 14.6617 22.1423 15.8161 22.0896C16.9682 22.0372 17.755 21.8545 18.4437 21.587C19.155 21.3103 19.759 20.9407 20.3606 20.3392C20.9623 19.738 21.3322 19.1347 21.609 18.4232C21.8765 17.7354 22.0597 16.9493 22.1121 15.7978C22.1648 14.6439 22.1771 14.2758 22.1771 11.338C22.1771 8.40016 22.1648 8.03188 22.1121 6.87822C22.0597 5.72689 21.8765 4.94056 21.609 4.25245C21.3322 3.5411 20.9623 2.93807 20.3606 2.33654C19.759 1.73524 19.155 1.36529 18.4437 1.08902C17.755 0.821527 16.9682 0.638581 15.8161 0.586362C14.6617 0.533665 14.2932 0.521118 11.3534 0.521118C8.41384 0.521118 8.0455 0.533665 6.89094 0.586362ZM6.97984 20.1425C5.92452 20.0947 5.35148 19.9188 4.97024 19.7705C4.4647 19.574 4.10449 19.3397 3.72564 18.9611C3.34678 18.5827 3.11224 18.2225 2.91573 17.7175C2.76753 17.3365 2.5914 16.7636 2.54309 15.7089C2.49108 14.5683 2.47984 14.226 2.47984 11.338C2.47984 8.44957 2.49108 8.1077 2.54309 6.96688C2.5914 5.91241 2.76753 5.33967 2.91573 4.95848C3.11224 4.4535 3.34678 4.09316 3.72564 3.71473C4.10449 3.33629 4.4647 3.10172 4.97024 2.90569C5.35148 2.75752 5.92452 2.58132 6.97984 2.5331C8.12101 2.48107 8.46352 2.47007 11.3534 2.47007C14.2434 2.47007 14.5857 2.48107 15.7274 2.5331C16.7824 2.58132 17.3556 2.75752 17.737 2.90569C18.2424 3.10172 18.6028 3.33629 18.9816 3.71473C19.3604 4.09316 19.5947 4.4535 19.7912 4.95848C19.9394 5.33967 20.1157 5.91241 20.164 6.96688C20.2161 8.1077 20.2267 8.44957 20.2267 11.338C20.2267 14.226 20.2161 14.5683 20.164 15.7089C20.1157 16.7636 19.9394 17.3365 19.7912 17.7175C19.5947 18.2225 19.3604 18.5827 18.9816 18.9611C18.6028 19.3397 18.2424 19.574 17.737 19.7705C17.3556 19.9188 16.7824 20.0947 15.7274 20.1425C14.5861 20.1949 14.2437 20.2058 11.3534 20.2058C8.46352 20.2058 8.12101 20.1949 6.97984 20.1425ZM15.8324 5.56378C15.8324 6.28051 16.4139 6.86203 17.1312 6.86203C17.8485 6.86203 18.4301 6.28051 18.4301 5.56378C18.4301 4.84688 17.8485 4.26589 17.1312 4.26589C16.4139 4.26589 15.8324 4.84688 15.8324 5.56378ZM5.79526 11.338C5.79526 14.4059 8.28374 16.8924 11.3534 16.8924C14.4233 16.8924 16.9115 14.4059 16.9115 11.338C16.9115 8.27015 14.4233 5.78323 11.3534 5.78323C8.28374 5.78323 5.79526 8.27015 5.79526 11.338ZM7.74562 11.338C7.74562 9.34668 9.36077 7.73237 11.3534 7.73237C13.3461 7.73237 14.9614 9.34668 14.9614 11.338C14.9614 13.3295 13.3461 14.9437 11.3534 14.9437C9.36077 14.9437 7.74562 13.3295 7.74562 11.338Z" fill="black"/>
</svg>
