<svg width="12" height="23" viewBox="0 0 12 23" fill="none" xmlns="http://www.w3.org/2000/svg">
    <mask id="mask0" mask-type="alpha" maskUnits="userSpaceOnUse" x="0" y="0" width="12" height="23">
        <path fill-rule="evenodd" clip-rule="evenodd" d="M0.941528 0.521118H11.0174V22.0753H0.941528V0.521118Z" fill="white"/>
    </mask>
    <g mask="url(#mask0)">
        <path fill-rule="evenodd" clip-rule="evenodd"
              d="M3.16834 16.6644C3.16834 14.977 3.16186 13.2896 3.17435 11.6025C3.17674 11.3181 3.09625 11.229 2.81159 11.2407C2.28547 11.262 1.75792 11.2385 1.23113 11.2507C1.01781 11.256 0.939227 11.1969 0.941516 10.9711C0.952196 9.91843 0.951147 8.86514 0.94266 7.81214C0.940753 7.60962 1.00179 7.543 1.20672 7.54748C1.74533 7.55987 2.28509 7.53242 2.82275 7.55901C3.13439 7.57436 3.19886 7.46361 3.19237 7.17466C3.17359 6.37344 3.17359 5.57099 3.19114 4.76968C3.21259 3.79101 3.47541 2.87725 4.05875 2.08156C4.79686 1.07383 5.84633 0.613132 7.05697 0.559096C8.30041 0.503915 9.5471 0.534507 10.792 0.521165C10.9656 0.519164 11.0174 0.581206 11.0166 0.749797C11.011 1.81462 11.01 2.87982 11.0174 3.94474C11.019 4.13411 10.9572 4.19205 10.7712 4.1891C10.1723 4.17976 9.57351 4.18433 8.97511 4.18595C8.17806 4.18843 7.70105 4.59814 7.65118 5.38658C7.61113 6.01853 7.6404 6.6544 7.62562 7.28835C7.62028 7.51412 7.75455 7.49869 7.90408 7.4985C8.81394 7.49707 9.72419 7.50745 10.634 7.49192C10.9012 7.48734 10.9893 7.54872 10.9587 7.82967C10.8441 8.88773 10.7458 9.94779 10.6551 11.0084C10.6344 11.2478 10.5251 11.2934 10.31 11.2897C9.59211 11.2787 8.87355 11.2821 8.15517 11.2867C7.63926 11.2897 7.68932 11.2112 7.68932 11.7371C7.68694 15.0397 7.68246 18.3425 7.69657 21.6453C7.6981 21.9941 7.60884 22.0806 7.26353 22.0745C6.03058 22.0518 4.79686 22.0507 3.56372 22.075C3.21631 22.082 3.15909 21.9641 3.16186 21.6543C3.17502 19.991 3.16834 18.3279 3.16834 16.6644Z"
              fill="black"/>
    </g>
</svg>
