<svg width="23" height="14" viewBox="0 0 23 14" fill="none" xmlns="http://www.w3.org/2000/svg">
    <mask id="mask0" mask-type="alpha" maskUnits="userSpaceOnUse" x="0" y="0" width="23" height="14">
        <path fill-rule="evenodd" clip-rule="evenodd" d="M0.529663 0.929565H22.1693V13.2697H0.529663V0.929565Z" fill="white"/>
    </mask>
    <g mask="url(#mask0)">
        <path fill-rule="evenodd" clip-rule="evenodd"
              d="M11.1207 13.2242H12.4128C12.4128 13.2242 12.8073 13.1823 13.0002 12.9642C13.1848 12.763 13.1764 12.3941 13.1764 12.3941C13.1764 12.3941 13.1512 10.6582 13.9567 10.4067C14.7538 10.1551 15.769 12.0837 16.8514 12.8216C17.6653 13.3834 18.2862 13.2576 18.2862 13.2576L21.1809 13.2157C21.1809 13.2157 22.6912 13.1236 21.978 11.9329C21.9193 11.8322 21.5585 11.0524 19.83 9.45085C18.0177 7.76534 18.2611 8.04205 20.4426 5.13248C21.7682 3.36312 22.3052 2.28151 22.1374 1.82032C21.978 1.37591 21.0047 1.4933 21.0047 1.4933L17.7492 1.51007C17.7492 1.51007 17.506 1.47645 17.3297 1.58554C17.1535 1.68608 17.0445 1.93763 17.0445 1.93763C17.0445 1.93763 16.5326 3.3045 15.8446 4.47005C14.393 6.92682 13.8141 7.06107 13.5791 6.91005C13.0253 6.55796 13.168 5.47627 13.168 4.71322C13.168 2.33182 13.5288 1.33398 12.4632 1.08243C12.1108 0.998574 11.8507 0.939878 10.9445 0.931409C9.78662 0.923108 8.79654 0.931409 8.24277 1.2082C7.87359 1.39259 7.58831 1.79517 7.76451 1.82032C7.98266 1.84548 8.46931 1.95449 8.72103 2.30666C9.05665 2.75947 9.03987 3.78238 9.03987 3.78238C9.03987 3.78238 9.23285 6.59142 8.59517 6.93529C8.15886 7.17838 7.55475 6.68374 6.26261 4.45319C5.59976 3.31289 5.10473 2.04672 5.10473 2.04672C5.10473 2.04672 5.01243 1.81185 4.83623 1.68608C4.62647 1.53523 4.3328 1.48492 4.3328 1.48492L1.23671 1.50169C1.23671 1.50169 0.775234 1.51837 0.599034 1.7197C0.448005 1.89571 0.590643 2.27304 0.590643 2.27304C0.590643 2.27304 3.01549 7.93305 5.75079 10.7925C8.26794 13.4003 11.1207 13.2242 11.1207 13.2242Z"
              fill="black"/>
    </g>
</svg>
